<svg width="89" height="88" viewBox="0 0 89 88" fill="none" xmlns="http://www.w3.org/2000/svg">
<g clip-path="url(#clip0_201_139)" filter="url(#filter0_dd_201_139)">
<path d="M37.6657 64.0001L37.6657 41.5003L25.8494 41.5003L44.4919 18.7077L63.1344 41.5003L51.3334 41.5003L51.3334 64.0001C58.0929 62.3357 64.0074 58.2623 67.9605 52.5487C71.9136 46.835 73.6319 39.8765 72.7909 32.9864C71.95 26.0963 68.6081 19.7514 63.396 15.1494C58.1839 10.5474 51.4622 8.0066 44.4996 8.0066C37.537 8.0066 30.8153 10.5474 25.6032 15.1494C20.391 19.7514 17.0491 26.0963 16.2082 32.9864C15.3673 39.8765 17.0856 46.835 21.0387 52.5487C24.9918 58.2623 30.9063 62.3357 37.6657 64.0001Z" fill="#F7F7FA"/>
</g>
<defs>
<filter id="filter0_dd_201_139" x="0" y="0" width="89" height="88" filterUnits="userSpaceOnUse" color-interpolation-filters="sRGB">
<feFlood flood-opacity="0" result="BackgroundImageFix"/>
<feColorMatrix in="SourceAlpha" type="matrix" values="0 0 0 0 0 0 0 0 0 0 0 0 0 0 0 0 0 0 127 0" result="hardAlpha"/>
<feOffset dy="8"/>
<feGaussianBlur stdDeviation="8"/>
<feColorMatrix type="matrix" values="0 0 0 0 0.196487 0 0 0 0 0.196487 0 0 0 0 0.279476 0 0 0 0.06 0"/>
<feBlend mode="multiply" in2="BackgroundImageFix" result="effect1_dropShadow_201_139"/>
<feColorMatrix in="SourceAlpha" type="matrix" values="0 0 0 0 0 0 0 0 0 0 0 0 0 0 0 0 0 0 127 0" result="hardAlpha"/>
<feOffset dy="8"/>
<feGaussianBlur stdDeviation="4"/>
<feColorMatrix type="matrix" values="0 0 0 0 0.196487 0 0 0 0 0.196487 0 0 0 0 0.279476 0 0 0 0.08 0"/>
<feBlend mode="multiply" in2="effect1_dropShadow_201_139" result="effect2_dropShadow_201_139"/>
<feBlend mode="normal" in="SourceGraphic" in2="effect2_dropShadow_201_139" result="shape"/>
</filter>
<clipPath id="clip0_201_139">
<rect width="56" height="57" fill="white" transform="translate(16 64) rotate(-90)"/>
</clipPath>
</defs>
</svg>
